<svg xmlns="http://www.w3.org/2000/svg" viewBox="0 0 92 42"><path d="M34,0a6,6,0,0,0-6,6V36a6,6,0,0,0,6,6H86a6,6,0,0,0,6-6V6a6,6,0,0,0-6-6Zm0,4H86a2,2,0,0,1,2,2V36a2,2,0,0,1-2,2H34a2,2,0,0,1-2-2V6A2,2,0,0,1,34,4ZM2,7a2,2,0,0,0,0,4H22a2,2,0,0,0,0-4ZM39.91,8a2,2,0,0,0-1.28,3.47l9.84,9.25-9.87,9.88a2,2,0,1,0,2.75,2.9l.06-.06,10-10,4,3.81a6.67,6.67,0,0,0,9.13,0l4.06-3.84,10,10a2,2,0,0,0,2.87-2.78l-.06-.06-9.87-9.87,9.84-9.25a2,2,0,0,0-2.75-2.91h0L61.81,24.34a3.24,3.24,0,0,1-3.66,0L41.38,8.53A2,2,0,0,0,39.91,8ZM6,19a2,2,0,0,0,0,4H22a2,2,0,0,0,0-4Zm4,12a2,2,0,0,0,0,4H22a2,2,0,0,0,0-4Z" fill="#ac1d40"/></svg>