<svg xmlns="http://www.w3.org/2000/svg" viewBox="0 0 182.04 76.34"><style>.cls-1{fill:none;stroke:#ac1d40;stroke-miterlimit:10;stroke-width:3px;}</style><path class="cls-1" d="M164.23,17.8,161.5,1.5H97.94L96.57,9.65H16.38L13.81,17.8H1.73l8.15,57h7V58.63H43.41V75.84h0V58.63h29V75.84h0V58.63h29V75.84h0V58.63h29V75.84h0V58.63h29V74.84h12.59l8.15-57Z"/><path class="cls-1" d="M17.55,35.42V26.68H30.88v8.75Zm22.07,0V26.68H53v8.75ZM17.55,49.74V41H30.88v8.75Zm22.07,0V41H53v8.75Z"/><path class="cls-1" d="M62.05,35.42V26.68H75.38v8.75Zm22.07,0V26.68H97.45v8.75ZM62.05,49.74V41H75.38v8.75Zm22.07,0V41H97.45v8.75Z"/></svg>