<svg xmlns="http://www.w3.org/2000/svg" viewBox="0 0 88.79 102.74"><style>.cls-1{fill:none;stroke:#ac1d40;stroke-miterlimit:10;stroke-width:3px;}</style><rect class="cls-1" x="1.5" y="13.99" width="11.04" height="87.25"/><rect class="cls-1" x="76.25" y="13.99" width="11.04" height="87.25"/><path class="cls-1" d="M33.78,82.71v18.53H55.22V82.71A20.86,20.86,0,0,0,33.78,82.71Z"/><path class="cls-1" d="M12.54,101.24H29V81.46a2.19,2.19,0,0,1,1-1.87,25.05,25.05,0,0,1,28.74,0,2.19,2.19,0,0,1,1,1.87v19.78H76.25V1.5H12.54ZM58.35,10.66h8.75V24H58.35Zm0,22.07h8.75V46.06H58.35Zm0,22.07h8.75V68.13H58.35ZM40,10.66h8.75V24H40Zm0,22.07h8.75V46.06H40Zm0,22.07h8.75V68.13H40ZM21.7,10.66h8.75V24H21.7Zm0,22.07h8.75V46.06H21.7Zm0,22.07h8.75V68.13H21.7Z"/></svg>