<svg xmlns="http://www.w3.org/2000/svg" viewBox="0 0 67.28 67.24"><path d="M54.56,44.06c8-3.69,12.72-11.32,12.72-18.2A14.5,14.5,0,0,0,52.8,11.38c-2.94,0-4-1.42-4.56-2.48h0l0,0v0A16.36,16.36,0,0,0,33.64,0h0A16.36,16.36,0,0,0,19.08,8.85h0l0,0c-.55,1.07-1.62,2.48-4.56,2.48A14.5,14.5,0,0,0,0,25.87c0,6.88,4.7,14.51,12.72,18.2C7.14,45.44,2.55,47.75,2.55,51.62c0,0,0,0,0,.05C2.61,64,22.91,67.24,33.64,67.24c1.27,0,31.09-.18,31.09-15.62C64.74,47.75,60.15,45.44,54.56,44.06ZM3.62,25.87A10.88,10.88,0,0,1,14.49,15a10.23,10.23,0,0,0,3-.43,16.13,16.13,0,0,0,1.94,9.36A1.81,1.81,0,1,0,22.46,22a12.8,12.8,0,0,1-.22-11.41v0A12.76,12.76,0,0,1,33.64,3.62h0A12.76,12.76,0,0,1,45,10.56v0h0A12.8,12.8,0,0,1,44.82,22a1.81,1.81,0,1,0,3.06,1.92,16.13,16.13,0,0,0,1.94-9.36,10.26,10.26,0,0,0,3,.43A10.88,10.88,0,0,1,63.67,25.87c0,5.79-4.92,14.52-15.42,16.44a14.77,14.77,0,1,0-29.22,0C8.54,40.39,3.62,31.66,3.62,25.87ZM44.79,40.28A11.15,11.15,0,1,1,33.64,29.13,11.16,11.16,0,0,1,44.79,40.28ZM33.64,63.63c-4.35,0-13.62-.83-20.19-3.69a79.17,79.17,0,0,0,20.19,2.38,77.86,77.86,0,0,0,20.75-2.54C47.91,62.79,38.41,63.63,33.64,63.63Zm0-4.93c-16.73,0-27.42-4.17-27.47-7.05v0h0c0-1.43,3.8-3.94,14.05-5.22a14.74,14.74,0,0,0,26.85,0c10.27,1.28,14.05,3.79,14.05,5.22C61.12,54.51,50.42,58.69,33.64,58.69Zm0-27.52a9.12,9.12,0,0,0-9.11,9.11,1.81,1.81,0,1,0,3.62,0,5.5,5.5,0,0,1,5.5-5.5,1.81,1.81,0,0,0,0-3.62Z" fill="#ac1d40"/></svg>