<svg xmlns="http://www.w3.org/2000/svg" viewBox="0 0 46.51 76.95"><path d="M41.07,27.94c-.75-.25-1.57-.51-2.43-.77a42.45,42.45,0,0,1-7.36-2.8l-.12-.07a4.74,4.74,0,0,1-1.42-1.13A15.86,15.86,0,0,0,35,11.76a11.76,11.76,0,1,0-23.51,0,15.86,15.86,0,0,0,5.26,11.41,4.75,4.75,0,0,1-1.42,1.13l-.1.06a42.32,42.32,0,0,1-7.37,2.81c-.85.27-1.67.52-2.43.77-4,1.33-5.44,5.51-5.44,8s1.63,4.31,4.68,5.4a1.72,1.72,0,0,0,.39.15c.06,0,5,1.28,6.77,3.85h-.16a1.81,1.81,0,0,0-1.81,1.81V67.92A1.81,1.81,0,0,0,8.4,69.69v5.45a1.81,1.81,0,0,0,1.81,1.81H36.3a1.81,1.81,0,0,0,1.81-1.81V69.69a1.81,1.81,0,0,0-1.47-1.77V47.13a1.81,1.81,0,0,0-1.81-1.81h-.16c1.74-2.57,6.71-3.83,6.77-3.85a1.81,1.81,0,0,0,.4-.15c3-1.08,4.67-2.78,4.67-5.39S45.06,29.27,41.07,27.94Zm-26-16.18a8.15,8.15,0,0,1,8.14-8.14,1.26,1.26,0,1,1-.89,2.15,1.81,1.81,0,1,0-2.56,2.56,4.86,4.86,0,0,0,8.29-3.1,8.12,8.12,0,0,1,3.3,6.53c0,4.6-3.83,10.42-8.14,10.42S15.11,16.35,15.11,11.76ZM7.22,38.34C6.58,38.13,6.12,38,6,38c-1.43-.5-2.34-1.16-2.34-2s.5-3.74,3-4.56c.73-.24,1.52-.49,2.35-.75a57.05,57.05,0,0,0,6.39-2.26,9.24,9.24,0,0,0,1.39,1.79,1.81,1.81,0,1,0,2.56-2.56,5.67,5.67,0,0,1-.83-1.06,6.68,6.68,0,0,0,1.36-1.45,8.78,8.78,0,0,0,6.91,0,6.7,6.7,0,0,0,1.35,1.44,5.6,5.6,0,0,1-4.81,2.72,1.81,1.81,0,0,0-1.81,1.81v8.42C17.58,39.46,11.21,39.31,7.22,38.34Zm23.48,7H15.81a7.07,7.07,0,0,0-1.27-2.43c2.6.15,5.49.21,8.7.21h0c3.21,0,6.11-.06,8.7-.21A7.07,7.07,0,0,0,30.7,45.32ZM33,48.94V67.89H13.49V48.94Zm1.47,24.39H12V71.5H34.49v1.83ZM40.55,38c-.18,0-.63.16-1.24.36-4,1-10.36,1.13-14.24,1.15v-6.8a9.2,9.2,0,0,0,6.13-4.32,57.25,57.25,0,0,0,6.38,2.26c.83.26,1.62.5,2.35.75,2.46.82,3,3.81,3,4.56S42,37.48,40.55,38Zm-22,18.27h9.33a1.81,1.81,0,1,0,0-3.62H18.59a1.81,1.81,0,1,0,0,3.62Zm7.52,2.88h-5.7a1.81,1.81,0,1,0,0,3.62h5.7a1.81,1.81,0,1,0,0-3.62Z" fill="#ac1d40"/></svg>