<svg xmlns="http://www.w3.org/2000/svg" viewBox="0 0 60.66 60.65"><path d="M53,0a1.81,1.81,0,0,0-1.81,1.81v9.82H1.81A1.81,1.81,0,0,0,0,13.43V58.84a1.81,1.81,0,0,0,1.81,1.81H53A7.63,7.63,0,0,0,60.66,53V7.62A7.63,7.63,0,0,0,53,0Zm0,57H3.62V15.24H51.23v32A1.81,1.81,0,0,0,53,49a4,4,0,1,1,0,8Zm4-10.48a7.62,7.62,0,0,0-2.19-.93V4A4,4,0,0,1,57,7.62Zm-12-28.16H9.77A1.81,1.81,0,0,0,8,20.2V52.07a1.81,1.81,0,0,0,1.81,1.81H45.08a1.81,1.81,0,0,0,1.81-1.81V36.49a1.81,1.81,0,1,0-3.62,0v4.09h-2a1.81,1.81,0,0,0,0,3.62h2v6.07H11.58V37.95h14v8a1.81,1.81,0,1,0,3.62,0V44.2H35a1.81,1.81,0,0,0,0-3.62H29.23V33.89a1.81,1.81,0,0,0-3.62,0v.44h-14V22h14v5.57a1.81,1.81,0,1,0,3.62,0V22h14v5.15L39.44,31A1.81,1.81,0,1,0,42,33.55l4.36-4.36a1.85,1.85,0,0,0,.23-.28l.07-.13c0-.06.07-.12.09-.18a1.77,1.77,0,0,0,.06-.19,1.34,1.34,0,0,0,0-.15,1.84,1.84,0,0,0,0-.35V20.2A1.81,1.81,0,0,0,45.08,18.39Z" fill="#ac1d40"/></svg>