<svg xmlns="http://www.w3.org/2000/svg" viewBox="0 0 79.07 56.99"><path d="M77.32,34H71a6,6,0,0,0-1.68-3.35L51,12.37a1.81,1.81,0,0,0-1.28-.53H39.09c-1,0-1.67.94-2.38,1.56a17.1,17.1,0,0,1-2.57,1.87A10.77,10.77,0,0,1,30,16.75a6.77,6.77,0,0,1-2.32-.1c-1.82-.43-3.12-2-1.53-3.59l8.55-8.55a3.14,3.14,0,0,1,2.55-.91H54.29c1,0,2.05,1,2.75,1.65,1.11,1,2.15,2,3.24,3,2,1.81,4.37,3.86,7.21,3.86h9.83a1.81,1.81,0,0,0,0-3.62H67.48A5.22,5.22,0,0,1,64.6,7.16a40.82,40.82,0,0,1-3.41-3C59.33,2.4,57,0,54.29,0H24.78c-2.76,0-5,2.4-6.9,4.15-1,1-2,1.94-3.15,2.81a5.62,5.62,0,0,1-3.14,1.52H1.75a1.81,1.81,0,0,0,0,3.62h9.83c2.84,0,5.23-2.05,7.21-3.86,1.08-1,2.13-2,3.24-3,.7-.6,1.75-1.65,2.75-1.65h5.7l-6.9,6.9a5.51,5.51,0,0,0-1.43,6.1,6.77,6.77,0,0,0,5,3.62c4.7,1,9.4-1.66,12.72-4.77H49L66.77,33.24c2.23,2.23-1.22,5.68-3.45,3.46L51.86,25.24A1.81,1.81,0,0,0,49.3,27.8l13,13c2.23,2.23-1.22,5.69-3.45,3.46l-13-13a1.81,1.81,0,0,0-2.56,2.56L54.5,45a2.46,2.46,0,0,1-1.72,4.17,2.42,2.42,0,0,1-1.73-.72h0L39.84,37.26a1.81,1.81,0,0,0-2.56,2.56l9.39,9.39c2.22,2.23-1.23,5.67-3.46,3.45L42,51.43a6.07,6.07,0,0,0-4.8-8.81,6,6,0,0,0-4.83-6.46,6.07,6.07,0,0,0-5.59-7.4,6.07,6.07,0,0,0-10.3-4.55L10,30.69A6,6,0,0,0,8.31,34H1.75a1.81,1.81,0,0,0,0,3.62H8.87A6,6,0,0,0,13.7,41a6.05,6.05,0,0,0,6.84,6.54,6.1,6.1,0,0,0,8,4.92,6,6,0,0,0,10.13,2.75l1-1,1,1a6.09,6.09,0,0,0,10.12-2.75,6.1,6.1,0,0,0,7.86-4.19,6.07,6.07,0,0,0,7.76-7.41,6,6,0,0,0,4-3.21h6.87A1.81,1.81,0,0,0,77.32,34ZM12.55,36.7a2.45,2.45,0,0,1,0-3.45L19,26.76c2.23-2.23,5.68,1.22,3.45,3.45L16,36.7a2.5,2.5,0,0,1-3.45,0ZM18,43.3a2.45,2.45,0,0,1,0-3.46l6.78-6.78c2.23-2.23,5.68,1.22,3.45,3.45L21.42,43.3a2.44,2.44,0,0,1-3.45,0Zm10.29,5.18a2.43,2.43,0,0,1-1.73.72h0A2.46,2.46,0,0,1,24.81,45l4.66-4.66c2.23-2.23,5.68,1.22,3.45,3.45Zm7.84,4.18c-2.22,2.22-5.66-1.21-3.47-3.44l2.3-2.29a2.44,2.44,0,1,1,3.45,3.46Z" fill="#ac1d40"/></svg>