<svg xmlns="http://www.w3.org/2000/svg" viewBox="0 0 43.18 61.95"><path d="M42.28,11.66,22.5.24a1.81,1.81,0,0,0-1.81,0L.9,11.66A1.81,1.81,0,0,0,0,13.23V48.72a1.81,1.81,0,0,0,.9,1.57L20.69,61.71a1.81,1.81,0,0,0,1.81,0L42.28,50.28a1.8,1.8,0,0,0,.9-1.57V13.23A1.81,1.81,0,0,0,42.28,11.66ZM3.62,17l6.13,4.82V40.18L3.62,45Zm27.86,1.76L23.4,14.05V4.94l14.76,8.52Zm-9.89,26L13.36,40V21.94l8.23-4.75,8.23,4.75V40ZM19.78,14.05l-8.08,4.66L5,13.46,19.78,4.94ZM11.71,43.23l8.08,4.66V57L5,48.49ZM23.4,47.9l8.08-4.67,6.68,5.26L23.4,57Zm10-7.72V21.77L39.57,17V45Z" fill="#ac1d40"/></svg>