<svg xmlns="http://www.w3.org/2000/svg" viewBox="0 0 56.47 56.47"><path d="M39.11,30.52,55.94,13.69a1.81,1.81,0,0,0,0-2.56L45.34.53a1.81,1.81,0,0,0-2.56,0l-6,6h0l-6,6h0L26,17.36,13.65,5.06,13.55,5l-.16-.12-.19-.11-.14-.06-.16-.07L4.23,2A1.81,1.81,0,0,0,2,4.22L4.61,12.9a1.83,1.83,0,0,0,.2.43l.07.1a1.73,1.73,0,0,0,.17.22L17.36,26,12.61,30.7h0L.53,42.78a1.81,1.81,0,0,0,0,2.56l10.61,10.6a1.81,1.81,0,0,0,2.56,0L30.52,39.11,46.06,54.66a1.8,1.8,0,0,0,2.56,0l6-6a1.81,1.81,0,0,0,0-2.56ZM9.52,13A10.11,10.11,0,0,0,13,9.48L44.81,41.33l-3.48,3.48ZM32,16.44l3.08,3.08A1.81,1.81,0,0,0,37.62,17l-3.08-3.08L38,10.4l3.08,3.08a1.81,1.81,0,0,0,2.56-2.56L40.58,7.84l3.48-3.48,8.05,8L36.55,28l-8-8Zm-22-8.95A6.57,6.57,0,0,1,7.5,10L6.41,6.42Zm2.47,44.62-8-8,3.48-3.48,3.08,3.08a1.81,1.81,0,0,0,2.56-2.56L10.4,38l3.48-3.48L17,37.63a1.81,1.81,0,0,0,2.56-2.56L16.44,32l3.48-3.48,8,8Zm34.93-1.29-3.46-3.46,3.48-3.48,3.46,3.46Z" fill="#ac1d40"/></svg>